<?xml version="1.0" encoding="utf-8"?>
<!-- Generator: Adobe Illustrator 20.1.0, SVG Export Plug-In . SVG Version: 6.00 Build 0)  -->
<svg version="1.1" id="Layer_1" xmlns="http://www.w3.org/2000/svg" xmlns:xlink="http://www.w3.org/1999/xlink" x="0px" y="0px"
	 width="359.7px" height="61px" viewBox="0 0 359.7 61" style="enable-background:new 0 0 359.7 61;" xml:space="preserve">
<style type="text/css">
	.st0{fill:#F20071;}
</style>
<g>
	<path class="st0" d="M57.4,42.3l-8.2,10.6H28.6c-3.6,0-6.9-0.5-9.9-1.6c-3-1.1-5.6-2.5-7.8-4.4c-2.2-1.9-3.9-4.1-5.2-6.6
		C4.5,37.7,3.8,35,3.8,32c0-3,0.6-5.7,1.9-8.2c1.3-2.5,3-4.6,5.2-6.4c2.2-1.8,4.8-3.1,7.8-4.1c3-1,6.3-1.4,9.9-1.4h42l-1.6,10.7
		H28.6c-1.7,0-3.3,0.2-4.8,0.7c-1.5,0.5-2.7,1.2-3.8,2.1c-1.1,0.9-1.9,1.9-2.5,3.2c-0.6,1.2-0.9,2.6-0.9,4.1c0,1.5,0.3,2.8,0.9,4
		c0.6,1.2,1.4,2.2,2.5,3.1c1.1,0.9,2.4,1.5,3.8,2c1.5,0.5,3.1,0.7,4.8,0.7H57.4z"/>
	<path class="st0" d="M74.5,31.3h-8v-10H51.1v10h-8V5.4h8v9.2h15.4V5.4h8V31.3z"/>
	<path class="st0" d="M116.1,31.3h-10.7l-5.8-6.8H87.3v6.8h-8V18h22.5c1.2,0,2.3-0.3,3.1-0.8c0.9-0.5,1.3-1.2,1.3-2.1
		c0-1-0.4-1.8-1.2-2.3c-0.8-0.5-1.9-0.8-3.3-0.8H79.3l5.2-6.7h16.6c1.5,0,3,0.1,4.6,0.4c1.6,0.3,3,0.8,4.3,1.4
		c1.3,0.7,2.4,1.6,3.2,2.8c0.8,1.2,1.3,2.7,1.3,4.6c0,1-0.2,2-0.5,2.9c-0.3,0.9-0.8,1.7-1.3,2.4c-0.6,0.7-1.3,1.3-2.1,1.8
		c-0.8,0.5-1.8,0.9-2.8,1.1c0.4,0.3,0.9,0.8,1.5,1.3c0.5,0.5,1.3,1.2,2.2,2.1L116.1,31.3z"/>
	<path class="st0" d="M136.2,5c6.3,0,11,1.1,14.2,3.2c3.2,2.1,4.7,5.5,4.7,10.1c0,4.6-1.6,8-4.7,10.2c-3.1,2.1-7.9,3.2-14.2,3.2
		c-6.3,0-11.1-1.1-14.2-3.2c-3.1-2.1-4.7-5.5-4.7-10.2c0-4.6,1.6-8,4.7-10.1C125.1,6,129.8,5,136.2,5z M136.2,25
		c2,0,3.7-0.1,5.1-0.3c1.4-0.2,2.5-0.5,3.4-1c0.9-0.5,1.5-1.2,1.9-2c0.4-0.9,0.6-2,0.6-3.4c0-1.4-0.2-2.5-0.6-3.4
		c-0.4-0.9-1-1.5-1.9-2c-0.9-0.5-2-0.8-3.4-1c-1.4-0.2-3.1-0.3-5.1-0.3c-2,0-3.7,0.1-5.1,0.3c-1.4,0.2-2.5,0.5-3.4,1
		c-0.9,0.5-1.5,1.1-1.9,2c-0.4,0.9-0.6,2-0.6,3.4c0,1.4,0.2,2.5,0.6,3.4c0.4,0.9,1,1.5,1.9,2c0.9,0.5,2,0.8,3.4,1
		C132.5,24.9,134.2,25,136.2,25z"/>
	<path class="st0" d="M175.9,15c0.6,1,1.1,1.9,1.5,2.6c0.4,0.8,0.8,1.4,1.1,2c0.3,0.6,0.6,1.1,0.9,1.6c0.2,0.5,0.5,1,0.7,1.4
		c0.2-0.5,0.4-0.9,0.7-1.4c0.2-0.5,0.5-1,0.9-1.6c0.3-0.6,0.7-1.3,1.1-2c0.4-0.7,0.9-1.6,1.5-2.6l4.1-7.4c0.5-0.8,1.1-1.5,1.8-2
		c0.7-0.5,1.6-0.8,2.6-0.8c1,0,1.9,0.3,2.7,0.9c0.8,0.6,1.4,1.5,1.8,2.7l6.5,22.8h-8l-2.4-9c-0.4-1.5-0.8-2.8-1-3.9
		c-0.3-1.1-0.5-2.2-0.7-3.3c-0.4,0.9-0.9,1.9-1.5,3c-0.5,1.1-1.3,2.5-2.1,4.2l-3.5,6.5c-0.3,0.6-0.7,1.2-1,1.5
		c-0.3,0.4-0.7,0.7-1.1,0.9c-0.4,0.2-0.8,0.3-1.2,0.4c-0.4,0.1-0.9,0.1-1.4,0.1c-0.5,0-0.9,0-1.4-0.1c-0.4-0.1-0.8-0.2-1.2-0.4
		c-0.4-0.2-0.7-0.5-1.1-0.9c-0.3-0.4-0.7-0.9-1-1.5l-3.5-6.5c-0.5-0.9-0.9-1.7-1.2-2.4c-0.4-0.7-0.7-1.3-1-1.9
		c-0.3-0.6-0.6-1.1-0.8-1.5c-0.2-0.5-0.4-0.9-0.6-1.4c-0.2,1-0.5,2.1-0.7,3.2c-0.3,1.1-0.6,2.4-1,3.9l-2.4,9h-7.9l6.7-22.8
		c0.4-1.2,1-2.1,1.8-2.7c0.8-0.6,1.7-0.9,2.7-0.9c1,0,1.9,0.2,2.6,0.7c0.7,0.5,1.3,1.2,1.8,2L175.9,15z"/>
	<path class="st0" d="M223.4,5c6.3,0,11,1.1,14.2,3.2c3.2,2.1,4.7,5.5,4.7,10.1c0,4.6-1.6,8-4.7,10.2c-3.1,2.1-7.9,3.2-14.2,3.2
		c-6.3,0-11.1-1.1-14.2-3.2c-3.1-2.1-4.7-5.5-4.7-10.2c0-4.6,1.6-8,4.7-10.1C212.3,6,217,5,223.4,5z M223.4,25c2,0,3.7-0.1,5.1-0.3
		c1.4-0.2,2.5-0.5,3.4-1c0.9-0.5,1.5-1.2,1.9-2c0.4-0.9,0.6-2,0.6-3.4c0-1.4-0.2-2.5-0.6-3.4c-0.4-0.9-1-1.5-1.9-2
		c-0.9-0.5-2-0.8-3.4-1c-1.4-0.2-3.1-0.3-5.1-0.3c-2,0-3.7,0.1-5.1,0.3c-1.4,0.2-2.5,0.5-3.4,1c-0.9,0.5-1.5,1.1-1.9,2
		c-0.4,0.9-0.6,2-0.6,3.4c0,1.4,0.2,2.5,0.6,3.4c0.4,0.9,1,1.5,1.9,2c0.9,0.5,2,0.8,3.4,1C219.6,24.9,221.3,25,223.4,25z"/>
	<path class="st0" d="M274.4,24.6l-5.2,6.7h-22.9V5.4h8v19.2H274.4z"/>
	<path class="st0" d="M286.7,31.3l4.8-6.7h6.5c0.8,0,1.6,0,2.4,0c0.8,0,1.6,0,2.2,0.1c-0.4-0.5-0.8-1.1-1.3-1.8
		c-0.5-0.7-0.9-1.4-1.4-2l-4.6-6.9l-12.2,17.2h-9.5l16.6-23.4c0.5-0.7,1.2-1.4,2-2c0.8-0.6,1.9-0.9,3.1-0.9c1.2,0,2.2,0.3,3,0.8
		c0.8,0.6,1.5,1.2,2.1,2.1l16.2,23.4H286.7z"/>
	<path class="st0" d="M348.9,18c1.1,0.3,2.1,1,2.9,2c0.8,1,1.2,2.2,1.2,3.8c0,1.1-0.2,2.1-0.5,3c-0.3,0.9-0.9,1.7-1.7,2.4
		c-0.8,0.7-1.9,1.2-3.2,1.6c-1.4,0.4-3.1,0.6-5.1,0.6h-22.8V15.5h22.9c0.6,0,1.1-0.1,1.6-0.4c0.5-0.2,0.7-0.7,0.7-1.4
		c0-0.6-0.2-1.1-0.7-1.3c-0.5-0.2-1-0.3-1.6-0.3h-22.9l5.4-6.7h17.1c1.6,0,2.9,0.1,4.2,0.4c1.3,0.3,2.3,0.7,3.2,1.4
		c0.9,0.6,1.6,1.4,2.1,2.2c0.5,0.9,0.7,1.9,0.7,3.1c0,0.8-0.1,1.5-0.3,2.1c-0.2,0.6-0.5,1.1-0.8,1.6c-0.3,0.5-0.7,0.8-1.1,1.1
		C349.8,17.6,349.4,17.8,348.9,18z M327.8,21v3.6h14.7c0.9,0,1.5-0.2,1.9-0.5c0.4-0.3,0.6-0.8,0.6-1.4c0-0.6-0.2-1-0.6-1.3
		c-0.4-0.3-1-0.4-1.9-0.4H327.8z"/>
	<g>
		<path class="st0" d="M72.4,52.7c0,0.1,0,0.1-0.1,0.1s-0.1,0.1-0.2,0.1c-0.1,0-0.2,0-0.3,0.1s-0.3,0-0.5,0c-0.2,0-0.4,0-0.5,0
			s-0.2,0-0.3-0.1c-0.1,0-0.1-0.1-0.1-0.1c0,0,0-0.1,0-0.1l1.6-8.1h0l-4.5,8.1c-0.1,0.1-0.2,0.2-0.4,0.3S66.8,53,66.5,53
			c-0.3,0-0.6,0-0.7-0.1c-0.1-0.1-0.2-0.1-0.2-0.2l-1.2-8.1h0l-1.6,8.1c0,0.1,0,0.1-0.1,0.1s-0.1,0.1-0.2,0.1c-0.1,0-0.2,0-0.3,0.1
			c-0.1,0-0.3,0-0.5,0s-0.4,0-0.5,0s-0.2,0-0.3-0.1c-0.1,0-0.1-0.1-0.1-0.1s0-0.1,0-0.1l1.8-8.8c0-0.1,0.1-0.2,0.1-0.3
			c0.1-0.1,0.1-0.2,0.2-0.3c0.1-0.1,0.2-0.1,0.3-0.2c0.1,0,0.2-0.1,0.3-0.1h1.3c0.2,0,0.4,0,0.6,0.1c0.2,0,0.3,0.1,0.4,0.2
			c0.1,0.1,0.2,0.2,0.2,0.4c0.1,0.1,0.1,0.3,0.1,0.5l1,5.9h0l3.4-5.9c0.1-0.2,0.2-0.4,0.3-0.5c0.1-0.1,0.2-0.3,0.3-0.4
			c0.1-0.1,0.3-0.2,0.4-0.2s0.3-0.1,0.5-0.1h1.4c0.1,0,0.2,0,0.3,0.1c0.1,0,0.2,0.1,0.2,0.2c0.1,0.1,0.1,0.2,0.1,0.3s0,0.2,0,0.3
			L72.4,52.7z"/>
		<path class="st0" d="M88.3,43.4c0,0,0,0.1,0,0.2c0,0.1,0,0.2,0,0.3c0,0.1,0,0.2-0.1,0.3c0,0.1-0.1,0.2-0.1,0.3
			c0,0.1-0.1,0.2-0.1,0.2s-0.1,0.1-0.2,0.1h-3.5l-0.5,2.4h3c0.1,0,0.1,0,0.2,0.1c0,0.1,0,0.1,0,0.2c0,0,0,0.1,0,0.2
			c0,0.1,0,0.2,0,0.3c0,0.1,0,0.2-0.1,0.3c0,0.1-0.1,0.2-0.1,0.3c0,0.1-0.1,0.1-0.1,0.2c-0.1,0.1-0.1,0.1-0.2,0.1h-3l-0.6,2.8h3.6
			c0.1,0,0.1,0,0.1,0.1c0,0.1,0,0.1,0,0.2c0,0,0,0.1,0,0.2s0,0.2,0,0.3c0,0.1,0,0.2-0.1,0.3s-0.1,0.2-0.1,0.3c0,0.1-0.1,0.2-0.1,0.2
			C86.3,53,86.3,53,86.2,53h-5c-0.1,0-0.2,0-0.2,0s-0.1-0.1-0.2-0.1c0-0.1-0.1-0.1-0.1-0.2s0-0.2,0-0.3l1.7-8.6
			c0-0.2,0.1-0.4,0.3-0.5c0.1-0.1,0.3-0.1,0.5-0.1h4.9C88.3,43.1,88.3,43.2,88.3,43.4z"/>
		<path class="st0" d="M103,55.3c0,0.1,0,0.1-0.1,0.1c0,0-0.1,0.1-0.2,0.1c-0.1,0-0.2,0-0.3,0.1c-0.1,0-0.3,0-0.4,0s-0.3,0-0.4,0
			c-0.1,0-0.2,0-0.3-0.1c-0.1,0-0.1-0.1-0.1-0.1c0,0,0-0.1,0-0.1l0.5-2.3h-6.6l-0.5,2.3c0,0.1,0,0.1-0.1,0.1c0,0-0.1,0.1-0.2,0.1
			c-0.1,0-0.2,0-0.3,0.1c-0.1,0-0.3,0-0.4,0c-0.2,0-0.3,0-0.4,0s-0.2,0-0.3-0.1c-0.1,0-0.1-0.1-0.1-0.1c0,0,0-0.1,0-0.1l0.7-3.6
			c0-0.1,0.1-0.3,0.1-0.3s0.2-0.1,0.3-0.1h0.5c0.2-0.2,0.3-0.4,0.5-0.5c0.2-0.2,0.3-0.4,0.5-0.7c0.2-0.3,0.3-0.6,0.5-0.9
			s0.4-0.8,0.6-1.3s0.4-1.1,0.7-1.8c0.2-0.7,0.5-1.5,0.8-2.4c0.1-0.2,0.2-0.4,0.3-0.5c0.1-0.1,0.3-0.2,0.4-0.2h5.1
			c0.2,0,0.3,0.1,0.4,0.2c0.1,0.1,0.1,0.3,0.1,0.5l-1.5,7.6h0.8c0.1,0,0.2,0,0.3,0.1c0,0.1,0.1,0.2,0,0.3L103,55.3z M101.9,44.7
			h-2.3c-0.2,0.8-0.5,1.5-0.7,2c-0.2,0.6-0.4,1.1-0.6,1.5c-0.2,0.4-0.3,0.8-0.5,1.1s-0.3,0.6-0.4,0.8c-0.1,0.2-0.3,0.4-0.4,0.6
			c-0.1,0.2-0.3,0.3-0.4,0.5h4L101.9,44.7z"/>
		<path class="st0" d="M119.1,52.7c0,0.1,0,0.1-0.1,0.1c0,0-0.1,0.1-0.2,0.1c-0.1,0-0.2,0-0.3,0.1s-0.3,0-0.5,0c-0.2,0-0.4,0-0.5,0
			c-0.1,0-0.2,0-0.3-0.1c-0.1,0-0.1-0.1-0.1-0.1c0,0,0-0.1,0-0.1l0.9-4.3c0-0.2,0.1-0.3,0.1-0.5c0-0.2,0.1-0.3,0.1-0.5
			c0-0.2,0.1-0.4,0.1-0.5s0.1-0.3,0.1-0.5h0c-0.2,0.3-0.5,0.6-0.7,0.9c-0.3,0.3-0.5,0.6-0.7,0.9l-3.9,4.5c-0.1,0.1-0.1,0.1-0.2,0.1
			c-0.1,0-0.1,0.1-0.2,0.1c-0.1,0-0.2,0-0.3,0c-0.1,0-0.2,0-0.4,0c-0.2,0-0.4,0-0.5,0c-0.1,0-0.2,0-0.3-0.1s-0.1-0.1-0.1-0.1
			s0-0.1,0-0.2l1.9-9.4c0-0.1,0-0.1,0.1-0.1c0,0,0.1-0.1,0.2-0.1c0.1,0,0.2,0,0.3-0.1s0.3,0,0.5,0s0.4,0,0.5,0c0.1,0,0.2,0,0.3,0.1
			c0.1,0,0.1,0.1,0.1,0.1c0,0,0,0.1,0,0.1L114,48c0,0.1-0.1,0.3-0.1,0.4c0,0.1-0.1,0.3-0.1,0.4c0,0.2-0.1,0.3-0.1,0.5
			c0,0.2-0.1,0.3-0.1,0.4h0c0.1-0.1,0.2-0.3,0.3-0.4c0.1-0.1,0.2-0.3,0.3-0.4s0.2-0.3,0.4-0.4c0.1-0.1,0.2-0.3,0.3-0.4l4-4.6
			c0.1-0.1,0.1-0.1,0.2-0.2c0.1,0,0.1-0.1,0.2-0.1c0.1,0,0.2,0,0.3-0.1s0.2,0,0.4,0c0.2,0,0.4,0,0.5,0c0.1,0,0.2,0,0.3,0.1
			c0.1,0,0.1,0.1,0.1,0.1c0,0,0,0.1,0,0.1L119.1,52.7z"/>
		<path class="st0" d="M135.3,51.3h0.9c0.1,0,0.2,0,0.2,0.1c0,0.1,0,0.2,0,0.3l-0.7,3.6c0,0.1,0,0.1-0.1,0.1c0,0-0.1,0.1-0.2,0.1
			s-0.2,0-0.3,0s-0.3,0-0.4,0c-0.2,0-0.3,0-0.4,0s-0.2,0-0.3-0.1c-0.1,0-0.1-0.1-0.1-0.1c0,0,0-0.1,0-0.1l0.5-2.3h-6.6
			c-0.2,0-0.3-0.1-0.4-0.2c-0.1-0.1-0.1-0.3-0.1-0.5l1.8-9c0-0.1,0-0.1,0.1-0.1c0,0,0.1-0.1,0.2-0.1c0.1,0,0.2,0,0.3-0.1
			s0.3,0,0.5,0c0.2,0,0.4,0,0.5,0c0.1,0,0.2,0,0.3,0.1c0.1,0,0.1,0.1,0.1,0.1c0,0,0,0.1,0,0.1l-1.6,8h3.7l1.6-8c0-0.1,0-0.1,0.1-0.1
			c0,0,0.1-0.1,0.2-0.1c0.1,0,0.2,0,0.3-0.1s0.3,0,0.5,0c0.2,0,0.4,0,0.5,0c0.1,0,0.2,0,0.3,0.1c0.1,0,0.1,0.1,0.1,0.1
			c0,0,0,0.1,0,0.1L135.3,51.3z"/>
		<path class="st0" d="M151.8,52.7c0,0.1,0,0.1-0.1,0.1c0,0-0.1,0.1-0.2,0.1c-0.1,0-0.2,0-0.3,0.1s-0.3,0-0.5,0c-0.2,0-0.4,0-0.5,0
			c-0.1,0-0.2,0-0.3-0.1c-0.1,0-0.1-0.1-0.1-0.1c0,0,0-0.1,0-0.1l0.9-4.3c0-0.2,0.1-0.3,0.1-0.5c0-0.2,0.1-0.3,0.1-0.5
			c0-0.2,0.1-0.4,0.1-0.5s0.1-0.3,0.1-0.5h0c-0.2,0.3-0.5,0.6-0.7,0.9c-0.3,0.3-0.5,0.6-0.7,0.9l-3.9,4.5c-0.1,0.1-0.1,0.1-0.2,0.1
			c-0.1,0-0.1,0.1-0.2,0.1c-0.1,0-0.2,0-0.3,0c-0.1,0-0.2,0-0.4,0c-0.2,0-0.4,0-0.5,0c-0.1,0-0.2,0-0.3-0.1s-0.1-0.1-0.1-0.1
			s0-0.1,0-0.2l1.9-9.4c0-0.1,0-0.1,0.1-0.1c0,0,0.1-0.1,0.2-0.1c0.1,0,0.2,0,0.3-0.1s0.3,0,0.5,0s0.4,0,0.5,0c0.1,0,0.2,0,0.3,0.1
			c0.1,0,0.1,0.1,0.1,0.1c0,0,0,0.1,0,0.1l-0.9,4.6c0,0.1-0.1,0.3-0.1,0.4c0,0.1-0.1,0.3-0.1,0.4c0,0.2-0.1,0.3-0.1,0.5
			c0,0.2-0.1,0.3-0.1,0.4h0c0.1-0.1,0.2-0.3,0.3-0.4c0.1-0.1,0.2-0.3,0.3-0.4s0.2-0.3,0.4-0.4c0.1-0.1,0.2-0.3,0.3-0.4l4-4.6
			c0.1-0.1,0.1-0.1,0.2-0.2c0.1,0,0.1-0.1,0.2-0.1c0.1,0,0.2,0,0.3-0.1s0.2,0,0.4,0c0.2,0,0.4,0,0.5,0c0.1,0,0.2,0,0.3,0.1
			c0.1,0,0.1,0.1,0.1,0.1c0,0,0,0.1,0,0.1L151.8,52.7z"/>
		<path class="st0" d="M167.8,52.7c0,0.1,0,0.1-0.1,0.1s-0.1,0.1-0.2,0.1c-0.1,0-0.2,0-0.3,0.1s-0.3,0-0.5,0s-0.4,0-0.5,0
			s-0.2,0-0.3-0.1c-0.1,0-0.1-0.1-0.1-0.1c0,0,0-0.1,0-0.1l0.8-4h-3.7l-0.8,4c0,0.1,0,0.1-0.1,0.1s-0.1,0.1-0.2,0.1
			c-0.1,0-0.2,0-0.3,0.1s-0.3,0-0.5,0c-0.2,0-0.4,0-0.5,0c-0.1,0-0.2,0-0.3-0.1c-0.1,0-0.1-0.1-0.1-0.1c0,0,0-0.1,0-0.1l1.9-9.4
			c0-0.1,0-0.1,0.1-0.1c0,0,0.1-0.1,0.2-0.1c0.1,0,0.2,0,0.3-0.1s0.3,0,0.5,0c0.2,0,0.4,0,0.5,0c0.1,0,0.2,0,0.3,0.1
			c0.1,0,0.1,0.1,0.1,0.1c0,0,0,0.1,0,0.1l-0.7,3.6h3.7l0.7-3.6c0-0.1,0-0.1,0.1-0.1c0,0,0.1-0.1,0.2-0.1c0.1,0,0.2,0,0.3-0.1
			s0.3,0,0.5,0s0.4,0,0.5,0c0.1,0,0.2,0,0.3,0.1c0.1,0,0.1,0.1,0.1,0.1c0,0,0,0.1,0,0.1L167.8,52.7z"/>
		<path class="st0" d="M184.4,44c0,0.1,0,0.3-0.1,0.6c0,0.2-0.1,0.4-0.2,0.6c-0.1,0.1-0.2,0.2-0.2,0.2c-0.1,0-0.1,0-0.2-0.1
			c-0.1-0.1-0.2-0.2-0.4-0.3c-0.1-0.1-0.3-0.2-0.6-0.3c-0.2-0.1-0.5-0.1-0.9-0.1c-0.4,0-0.7,0.1-1,0.2c-0.3,0.2-0.6,0.4-0.8,0.6
			c-0.2,0.2-0.5,0.5-0.6,0.9s-0.3,0.7-0.5,1c-0.1,0.3-0.2,0.7-0.3,1c-0.1,0.3-0.1,0.7-0.1,1c0,0.4,0,0.7,0.1,0.9
			c0.1,0.3,0.2,0.5,0.4,0.7c0.2,0.2,0.4,0.3,0.6,0.4s0.5,0.1,0.8,0.1c0.4,0,0.7,0,0.9-0.1c0.3-0.1,0.5-0.2,0.7-0.3
			c0.2-0.1,0.3-0.2,0.5-0.3s0.2-0.1,0.3-0.1c0.1,0,0.1,0,0.1,0.1c0,0,0,0.1,0,0.2c0,0,0,0.1,0,0.2c0,0.1,0,0.2,0,0.2
			c0,0.1,0,0.2-0.1,0.3c0,0.1,0,0.2-0.1,0.3c0,0.1-0.1,0.2-0.1,0.2c0,0.1-0.1,0.1-0.1,0.2s-0.2,0.1-0.3,0.2
			c-0.2,0.1-0.4,0.2-0.6,0.2c-0.2,0.1-0.5,0.1-0.8,0.2s-0.6,0.1-1,0.1c-0.6,0-1.1-0.1-1.5-0.2c-0.4-0.1-0.8-0.4-1.1-0.7
			c-0.3-0.3-0.6-0.7-0.7-1.1c-0.2-0.5-0.3-1-0.3-1.6c0-0.5,0-1,0.1-1.5s0.2-1,0.4-1.5s0.4-1,0.7-1.4c0.3-0.4,0.7-0.8,1.1-1.2
			c0.4-0.3,0.9-0.6,1.4-0.8c0.5-0.2,1.1-0.3,1.7-0.3c0.4,0,0.7,0,1,0.1c0.3,0.1,0.6,0.2,0.8,0.3c0.2,0.1,0.4,0.2,0.5,0.3
			S184.4,43.9,184.4,44z"/>
		<path class="st0" d="M197.6,52.6c0,0.1,0,0.2,0,0.2s-0.1,0.1-0.2,0.1S197.2,53,197,53c-0.1,0-0.3,0-0.5,0c-0.2,0-0.4,0-0.5,0
			s-0.2,0-0.3-0.1c-0.1,0-0.1-0.1-0.1-0.1s0-0.1,0-0.2l-0.4-2.2c-0.1-0.3-0.1-0.6-0.2-0.8c-0.1-0.2-0.2-0.4-0.3-0.5
			c-0.1-0.1-0.3-0.2-0.5-0.3c-0.2-0.1-0.4-0.1-0.6-0.1h-0.4l-0.8,4c0,0.1,0,0.1-0.1,0.1c0,0-0.1,0.1-0.2,0.1c-0.1,0-0.2,0-0.3,0.1
			s-0.3,0-0.5,0c-0.2,0-0.4,0-0.5,0c-0.1,0-0.2,0-0.3-0.1c-0.1,0-0.1-0.1-0.1-0.1c0,0,0-0.1,0-0.1l1.9-9.4c0-0.1,0-0.1,0.1-0.1
			c0,0,0.1-0.1,0.2-0.1c0.1,0,0.2,0,0.3-0.1s0.3,0,0.5,0c0.2,0,0.4,0,0.5,0c0.1,0,0.2,0,0.3,0.1c0.1,0,0.1,0.1,0.1,0.1
			c0,0,0,0.1,0,0.1l-0.8,3.7h0.4c0.2,0,0.4,0,0.6-0.1c0.2-0.1,0.4-0.2,0.5-0.3c0.2-0.1,0.3-0.3,0.5-0.5s0.3-0.5,0.5-0.8l1.1-2
			c0-0.1,0.1-0.1,0.1-0.2c0.1,0,0.1-0.1,0.2-0.1c0.1,0,0.2,0,0.3-0.1c0.1,0,0.3,0,0.5,0c0.2,0,0.4,0,0.5,0c0.1,0,0.2,0,0.3,0.1
			c0.1,0,0.1,0.1,0.1,0.1s0,0.1,0,0.1c0,0.1,0,0.2-0.1,0.3s-0.1,0.2-0.2,0.4l-1,1.8c-0.2,0.3-0.4,0.6-0.5,0.8
			c-0.2,0.2-0.3,0.4-0.5,0.6c-0.2,0.2-0.3,0.3-0.5,0.4c-0.2,0.1-0.4,0.2-0.5,0.3v0c0.2,0.1,0.3,0.2,0.5,0.3c0.1,0.1,0.3,0.2,0.4,0.4
			c0.1,0.2,0.2,0.4,0.3,0.6s0.2,0.5,0.2,0.9l0.4,2.1c0,0.1,0,0.2,0,0.3C197.6,52.4,197.6,52.5,197.6,52.6z"/>
		<path class="st0" d="M213.3,52.7c0,0.1,0,0.1-0.1,0.1c0,0-0.1,0.1-0.2,0.1c-0.1,0-0.2,0-0.3,0.1s-0.3,0-0.5,0c-0.2,0-0.4,0-0.5,0
			c-0.1,0-0.2,0-0.3-0.1c-0.1,0-0.1-0.1-0.1-0.1c0,0,0-0.1,0-0.1l0.9-4.3c0-0.2,0.1-0.3,0.1-0.5c0-0.2,0.1-0.3,0.1-0.5
			c0-0.2,0.1-0.4,0.1-0.5s0.1-0.3,0.1-0.5h0c-0.2,0.3-0.5,0.6-0.7,0.9c-0.3,0.3-0.5,0.6-0.7,0.9l-3.9,4.5c-0.1,0.1-0.1,0.1-0.2,0.1
			c-0.1,0-0.1,0.1-0.2,0.1c-0.1,0-0.2,0-0.3,0c-0.1,0-0.2,0-0.4,0c-0.2,0-0.4,0-0.5,0c-0.1,0-0.2,0-0.3-0.1s-0.1-0.1-0.1-0.1
			s0-0.1,0-0.2l1.9-9.4c0-0.1,0-0.1,0.1-0.1c0,0,0.1-0.1,0.2-0.1c0.1,0,0.2,0,0.3-0.1s0.3,0,0.5,0s0.4,0,0.5,0c0.1,0,0.2,0,0.3,0.1
			c0.1,0,0.1,0.1,0.1,0.1c0,0,0,0.1,0,0.1l-0.9,4.6c0,0.1-0.1,0.3-0.1,0.4c0,0.1-0.1,0.3-0.1,0.4c0,0.2-0.1,0.3-0.1,0.5
			c0,0.2-0.1,0.3-0.1,0.4h0c0.1-0.1,0.2-0.3,0.3-0.4c0.1-0.1,0.2-0.3,0.3-0.4s0.2-0.3,0.4-0.4c0.1-0.1,0.2-0.3,0.3-0.4l4-4.6
			c0.1-0.1,0.1-0.1,0.2-0.2c0.1,0,0.1-0.1,0.2-0.1c0.1,0,0.2,0,0.3-0.1s0.2,0,0.4,0c0.2,0,0.4,0,0.5,0c0.1,0,0.2,0,0.3,0.1
			c0.1,0,0.1,0.1,0.1,0.1c0,0,0,0.1,0,0.1L213.3,52.7z"/>
		<path class="st0" d="M229.2,43.4c0,0,0,0.1,0,0.2c0,0.1,0,0.2,0,0.3c0,0.1,0,0.2-0.1,0.3c0,0.1-0.1,0.2-0.1,0.3
			c0,0.1-0.1,0.2-0.1,0.2s-0.1,0.1-0.2,0.1h-3.5l-0.5,2.4h3c0.1,0,0.1,0,0.2,0.1c0,0.1,0,0.1,0,0.2c0,0,0,0.1,0,0.2
			c0,0.1,0,0.2,0,0.3c0,0.1,0,0.2-0.1,0.3c0,0.1-0.1,0.2-0.1,0.3c0,0.1-0.1,0.1-0.1,0.2c-0.1,0.1-0.1,0.1-0.2,0.1h-3l-0.6,2.8h3.6
			c0.1,0,0.1,0,0.1,0.1c0,0.1,0,0.1,0,0.2c0,0,0,0.1,0,0.2s0,0.2,0,0.3c0,0.1,0,0.2-0.1,0.3s-0.1,0.2-0.1,0.3c0,0.1-0.1,0.2-0.1,0.2
			c-0.1,0.1-0.1,0.1-0.2,0.1h-5c-0.1,0-0.2,0-0.2,0s-0.1-0.1-0.2-0.1c0-0.1-0.1-0.1-0.1-0.2s0-0.2,0-0.3l1.7-8.6
			c0-0.2,0.1-0.4,0.3-0.5c0.1-0.1,0.3-0.1,0.5-0.1h4.9C229.1,43.1,229.2,43.2,229.2,43.4z"/>
		<path class="st0" d="M253.1,52.2c0,0.2,0,0.3,0,0.4c0,0.1,0,0.2-0.1,0.2s-0.2,0.1-0.3,0.1c-0.2,0-0.4,0-0.7,0c-0.2,0-0.4,0-0.5,0
			c-0.1,0-0.2,0-0.3,0c-0.1,0-0.1-0.1-0.1-0.1c0,0,0-0.1,0-0.2l-0.3-2h-3.7l-1,1.9c0,0.1-0.1,0.1-0.1,0.2c0,0-0.1,0.1-0.2,0.1
			c-0.1,0-0.2,0-0.3,0.1c-0.1,0-0.3,0-0.5,0c-0.2,0-0.4,0-0.5,0c-0.1,0-0.2-0.1-0.3-0.1c0-0.1,0-0.1,0-0.2c0-0.1,0.1-0.2,0.2-0.4
			l4.8-8.8c0.1-0.1,0.1-0.2,0.2-0.2s0.1-0.1,0.2-0.1c0.1,0,0.2,0,0.4-0.1c0.2,0,0.4,0,0.6,0c0.3,0,0.5,0,0.7,0s0.3,0,0.4,0.1
			c0.1,0,0.2,0.1,0.2,0.1c0,0.1,0.1,0.1,0.1,0.2L253.1,52.2z M250.1,45L250.1,45l-2.2,4.2h2.8L250.1,45z"/>
		<path class="st0" d="M268.3,52.7c0,0.1,0,0.1-0.1,0.1s-0.1,0.1-0.2,0.1c-0.1,0-0.2,0-0.3,0.1s-0.3,0-0.5,0s-0.4,0-0.5,0
			s-0.2,0-0.3-0.1c-0.1,0-0.1-0.1-0.1-0.1c0,0,0-0.1,0-0.1l0.8-4h-3.7l-0.8,4c0,0.1,0,0.1-0.1,0.1s-0.1,0.1-0.2,0.1
			c-0.1,0-0.2,0-0.3,0.1s-0.3,0-0.5,0c-0.2,0-0.4,0-0.5,0c-0.1,0-0.2,0-0.3-0.1c-0.1,0-0.1-0.1-0.1-0.1c0,0,0-0.1,0-0.1l1.9-9.4
			c0-0.1,0-0.1,0.1-0.1c0,0,0.1-0.1,0.2-0.1c0.1,0,0.2,0,0.3-0.1s0.3,0,0.5,0c0.2,0,0.4,0,0.5,0c0.1,0,0.2,0,0.3,0.1
			c0.1,0,0.1,0.1,0.1,0.1c0,0,0,0.1,0,0.1l-0.7,3.6h3.7l0.7-3.6c0-0.1,0-0.1,0.1-0.1c0,0,0.1-0.1,0.2-0.1c0.1,0,0.2,0,0.3-0.1
			s0.3,0,0.5,0s0.4,0,0.5,0c0.1,0,0.2,0,0.3,0.1c0.1,0,0.1,0.1,0.1,0.1c0,0,0,0.1,0,0.1L268.3,52.7z"/>
		<path class="st0" d="M284.7,52.2c0,0.2,0,0.3,0,0.4c0,0.1,0,0.2-0.1,0.2s-0.2,0.1-0.3,0.1c-0.2,0-0.4,0-0.7,0c-0.2,0-0.4,0-0.5,0
			c-0.1,0-0.2,0-0.3,0c-0.1,0-0.1-0.1-0.1-0.1c0,0,0-0.1,0-0.2l-0.3-2h-3.7l-1,1.9c0,0.1-0.1,0.1-0.1,0.2c0,0-0.1,0.1-0.2,0.1
			c-0.1,0-0.2,0-0.3,0.1c-0.1,0-0.3,0-0.5,0c-0.2,0-0.4,0-0.5,0c-0.1,0-0.2-0.1-0.3-0.1c0-0.1,0-0.1,0-0.2c0-0.1,0.1-0.2,0.2-0.4
			l4.8-8.8c0.1-0.1,0.1-0.2,0.2-0.2s0.1-0.1,0.2-0.1c0.1,0,0.2,0,0.4-0.1c0.2,0,0.4,0,0.6,0c0.3,0,0.5,0,0.7,0s0.3,0,0.4,0.1
			c0.1,0,0.2,0.1,0.2,0.1c0,0.1,0.1,0.1,0.1,0.2L284.7,52.2z M281.7,45L281.7,45l-2.2,4.2h2.8L281.7,45z"/>
		<path class="st0" d="M299.8,52.7c0,0.1,0,0.1-0.1,0.1c0,0-0.1,0.1-0.2,0.1c-0.1,0-0.2,0-0.3,0.1s-0.3,0-0.5,0c-0.2,0-0.4,0-0.5,0
			c-0.1,0-0.2,0-0.3-0.1c-0.1,0-0.1-0.1-0.1-0.1c0,0,0-0.1,0-0.1l1.6-8h-2.1c-0.4,1.2-0.7,2.2-1,3.1s-0.6,1.6-0.9,2.2
			c-0.3,0.6-0.6,1.1-0.9,1.5c-0.3,0.4-0.6,0.7-0.9,0.9s-0.6,0.4-1,0.5c-0.3,0.1-0.7,0.1-1.1,0.1c-0.2,0-0.3,0-0.3-0.1
			c0-0.1-0.1-0.1-0.1-0.3c0,0,0-0.1,0-0.2c0-0.1,0-0.2,0-0.3c0-0.1,0-0.2,0.1-0.3s0.1-0.2,0.1-0.3c0-0.1,0.1-0.2,0.1-0.2
			c0.1-0.1,0.1-0.1,0.2-0.1c0.2,0,0.3,0,0.5-0.1c0.2-0.1,0.3-0.2,0.5-0.4s0.4-0.5,0.5-0.8c0.2-0.3,0.4-0.8,0.6-1.4
			c0.2-0.6,0.5-1.2,0.8-2s0.6-1.8,0.9-2.9c0-0.1,0.1-0.2,0.1-0.3c0-0.1,0.1-0.2,0.1-0.2s0.1-0.1,0.2-0.1s0.2,0,0.3,0h4.9
			c0.2,0,0.3,0.1,0.4,0.2c0.1,0.1,0.1,0.3,0.1,0.5L299.8,52.7z"/>
		<path class="st0" d="M316.2,52.7c0,0.1,0,0.1-0.1,0.1c0,0-0.1,0.1-0.2,0.1c-0.1,0-0.2,0-0.3,0.1s-0.3,0-0.5,0c-0.2,0-0.4,0-0.5,0
			c-0.1,0-0.2,0-0.3-0.1c-0.1,0-0.1-0.1-0.1-0.1c0,0,0-0.1,0-0.1l0.9-4.3c0-0.2,0.1-0.3,0.1-0.5c0-0.2,0.1-0.3,0.1-0.5
			c0-0.2,0.1-0.4,0.1-0.5s0.1-0.3,0.1-0.5h0c-0.2,0.3-0.5,0.6-0.7,0.9c-0.3,0.3-0.5,0.6-0.7,0.9l-3.9,4.5c-0.1,0.1-0.1,0.1-0.2,0.1
			c-0.1,0-0.1,0.1-0.2,0.1c-0.1,0-0.2,0-0.3,0c-0.1,0-0.2,0-0.4,0c-0.2,0-0.4,0-0.5,0c-0.1,0-0.2,0-0.3-0.1s-0.1-0.1-0.1-0.1
			s0-0.1,0-0.2l1.9-9.4c0-0.1,0-0.1,0.1-0.1c0,0,0.1-0.1,0.2-0.1c0.1,0,0.2,0,0.3-0.1s0.3,0,0.5,0s0.4,0,0.5,0c0.1,0,0.2,0,0.3,0.1
			c0.1,0,0.1,0.1,0.1,0.1c0,0,0,0.1,0,0.1l-0.9,4.6c0,0.1-0.1,0.3-0.1,0.4c0,0.1-0.1,0.3-0.1,0.4c0,0.2-0.1,0.3-0.1,0.5
			c0,0.2-0.1,0.3-0.1,0.4h0c0.1-0.1,0.2-0.3,0.3-0.4c0.1-0.1,0.2-0.3,0.3-0.4s0.2-0.3,0.4-0.4c0.1-0.1,0.2-0.3,0.3-0.4l4-4.6
			c0.1-0.1,0.1-0.1,0.2-0.2c0.1,0,0.1-0.1,0.2-0.1c0.1,0,0.2,0,0.3-0.1s0.2,0,0.4,0c0.2,0,0.4,0,0.5,0c0.1,0,0.2,0,0.3,0.1
			c0.1,0,0.1,0.1,0.1,0.1c0,0,0,0.1,0,0.1L316.2,52.7z"/>
		<path class="st0" d="M331.6,45c0,0.3-0.1,0.6-0.2,0.9c-0.1,0.3-0.3,0.6-0.5,0.8c-0.2,0.3-0.4,0.5-0.7,0.6c-0.3,0.2-0.6,0.3-1,0.4
			v0c0.3,0.1,0.5,0.1,0.7,0.3s0.4,0.3,0.5,0.4c0.1,0.2,0.2,0.4,0.3,0.6s0.1,0.4,0.1,0.7c0,0.4-0.1,0.9-0.3,1.3
			c-0.2,0.4-0.5,0.8-0.8,1.1s-0.8,0.6-1.4,0.8c-0.6,0.2-1.2,0.3-2,0.3c-0.3,0-0.5,0-0.8-0.1S325.2,53,325,53s-0.4-0.1-0.5-0.2
			c-0.2-0.1-0.3-0.1-0.3-0.2s-0.1-0.1-0.1-0.2s0-0.1,0-0.2c0,0,0-0.1,0-0.2c0-0.1,0-0.2,0-0.3s0-0.2,0.1-0.3s0.1-0.2,0.1-0.3
			c0-0.1,0.1-0.2,0.1-0.2s0.1-0.1,0.1-0.1c0.1,0,0.1,0,0.2,0.1c0.1,0.1,0.2,0.1,0.4,0.2c0.2,0.1,0.4,0.1,0.6,0.2
			c0.2,0.1,0.5,0.1,0.8,0.1c0.3,0,0.6,0,0.9-0.1c0.3-0.1,0.5-0.2,0.7-0.3c0.2-0.1,0.3-0.3,0.4-0.5c0.1-0.2,0.2-0.4,0.2-0.7
			c0-0.2,0-0.4-0.1-0.5c-0.1-0.1-0.2-0.3-0.3-0.4c-0.1-0.1-0.3-0.2-0.6-0.2c-0.2-0.1-0.5-0.1-0.9-0.1h-1c-0.1,0-0.2,0-0.2-0.1
			s-0.1-0.1-0.1-0.2c0,0,0-0.1,0-0.2c0-0.1,0-0.2,0.1-0.3c0-0.1,0.1-0.2,0.1-0.3c0-0.1,0.1-0.2,0.1-0.2c0,0,0.1-0.1,0.1-0.1
			s0.1,0,0.1,0h1.1c0.3,0,0.6,0,0.9-0.1s0.5-0.2,0.7-0.3c0.2-0.1,0.4-0.3,0.5-0.5c0.1-0.2,0.2-0.4,0.2-0.7c0-0.2,0-0.3-0.1-0.4
			c0-0.1-0.1-0.2-0.2-0.3c-0.1-0.1-0.2-0.1-0.4-0.2c-0.2,0-0.4-0.1-0.6-0.1c-0.3,0-0.6,0-0.8,0.1c-0.3,0.1-0.5,0.1-0.7,0.2
			c-0.2,0.1-0.4,0.1-0.5,0.2s-0.2,0.1-0.3,0.1c-0.1,0-0.1,0-0.1-0.1c0-0.1,0-0.1,0-0.2c0-0.1,0-0.1,0-0.3s0-0.2,0.1-0.4
			c0-0.1,0.1-0.3,0.1-0.4c0-0.1,0.1-0.2,0.2-0.3c0.1-0.1,0.2-0.1,0.4-0.2c0.2-0.1,0.4-0.1,0.7-0.2s0.5-0.1,0.8-0.2s0.6-0.1,0.8-0.1
			c0.5,0,1,0.1,1.3,0.2c0.4,0.1,0.7,0.3,0.9,0.4s0.4,0.4,0.5,0.7C331.5,44.4,331.6,44.7,331.6,45z"/>
		<path class="st0" d="M345.9,49.2c0,0.2,0,0.4-0.1,0.6s-0.1,0.5-0.2,0.7s-0.2,0.5-0.3,0.7c-0.1,0.2-0.3,0.5-0.5,0.7
			s-0.5,0.4-0.8,0.5c-0.3,0.2-0.6,0.3-1,0.4c-0.3,0.1-0.6,0.1-0.9,0.1s-0.7,0-1,0h-2.4c-0.1,0-0.2,0-0.2,0s-0.1-0.1-0.2-0.1
			s-0.1-0.1-0.1-0.2c0-0.1,0-0.2,0-0.3l1.8-9c0-0.1,0-0.1,0.1-0.1c0,0,0.1-0.1,0.2-0.1s0.2,0,0.3,0s0.3,0,0.5,0s0.4,0,0.5,0
			c0.1,0,0.2,0,0.3,0c0.1,0,0.1,0.1,0.1,0.1c0,0,0,0.1,0,0.1l-0.7,3.4h1.1c0.2,0,0.4,0,0.5,0c0.2,0,0.3,0,0.4,0s0.3,0,0.4,0
			c0.1,0,0.2,0,0.3,0.1c0.3,0.1,0.6,0.2,0.9,0.4c0.2,0.2,0.4,0.3,0.6,0.5s0.3,0.4,0.3,0.7C345.8,48.7,345.9,48.9,345.9,49.2z
			 M343.8,49.4c0-0.2,0-0.4-0.1-0.6c-0.1-0.2-0.3-0.3-0.5-0.4c-0.1,0-0.1,0-0.2-0.1s-0.1,0-0.2,0c-0.1,0-0.2,0-0.3,0
			c-0.1,0-0.3,0-0.4,0h-1l-0.6,3.1h1c0.2,0,0.3,0,0.4,0c0.1,0,0.2,0,0.3,0c0.1,0,0.2,0,0.3-0.1s0.2,0,0.2-0.1
			c0.2-0.1,0.3-0.2,0.5-0.3s0.3-0.3,0.4-0.4c0.1-0.2,0.2-0.3,0.2-0.5S343.8,49.6,343.8,49.4z M348.4,52.7c0,0.1,0,0.1-0.1,0.1
			c0,0-0.1,0.1-0.2,0.1c-0.1,0-0.2,0-0.3,0s-0.3,0-0.5,0s-0.4,0-0.5,0c-0.1,0-0.2,0-0.3,0s-0.1-0.1-0.1-0.1c0,0,0-0.1,0-0.1l1.9-9.4
			c0-0.1,0-0.1,0.1-0.1c0,0,0.1-0.1,0.2-0.1c0.1,0,0.2,0,0.3,0s0.3,0,0.5,0c0.2,0,0.4,0,0.5,0c0.1,0,0.2,0,0.3,0
			c0.1,0,0.1,0.1,0.1,0.1c0,0,0,0.1,0,0.1L348.4,52.7z"/>
	</g>
</g>
</svg>
